<svg width="27" height="27" viewBox="0 0 27 27" fill="none" xmlns="http://www.w3.org/2000/svg">
<g clip-path="url(#clip0_1_1526)">
<path d="M24.75 14.25C24.6513 14.2506 24.5534 14.2316 24.4621 14.1943C24.3707 14.157 24.2876 14.102 24.2175 14.0325L13.5 3.30749L2.78249 14.0325C2.63901 14.1554 2.45446 14.2196 2.2657 14.2123C2.07694 14.205 1.89789 14.1267 1.76432 13.9932C1.63075 13.8596 1.5525 13.6805 1.54521 13.4918C1.53792 13.303 1.60212 13.1185 1.72499 12.975L12.975 1.72499C13.1155 1.5853 13.3056 1.5069 13.5037 1.5069C13.7019 1.5069 13.892 1.5853 14.0325 1.72499L25.2825 12.975C25.3857 13.0803 25.4556 13.2137 25.4834 13.3584C25.5112 13.5032 25.4958 13.653 25.439 13.789C25.3821 13.9251 25.2865 14.0414 25.1639 14.1233C25.0414 14.2053 24.8974 14.2494 24.75 14.25Z" fill="#DFDFDF"/>
<path d="M13.5 5.84253L4.5 14.8725V24C4.5 24.3979 4.65804 24.7794 4.93934 25.0607C5.22064 25.342 5.60218 25.5 6 25.5H11.25V18H15.75V25.5H21C21.3978 25.5 21.7794 25.342 22.0607 25.0607C22.342 24.7794 22.5 24.3979 22.5 24V14.82L13.5 5.84253Z" fill="#DFDFDF"/>
</g>
<defs>
<clipPath id="clip0_1_1526">
<rect width="27" height="27" fill="white"/>
</clipPath>
</defs>
</svg>
